<?xml version="1.0" encoding="UTF-8" standalone="no"?>
<svg
   width="135.00122"
   height="32.1441"
   viewBox="0 0 135.00122 32.1441"
   version="1.1"
   id="svg11"
   sodipodi:docname="logo.svg"
   inkscape:version="1.1.1 (3bf5ae0d25, 2021-09-20)"
   xmlns:inkscape="http://www.inkscape.org/namespaces/inkscape"
   xmlns:sodipodi="http://sodipodi.sourceforge.net/DTD/sodipodi-0.dtd"
   xmlns="http://www.w3.org/2000/svg"
   xmlns:svg="http://www.w3.org/2000/svg"
   xmlns:rdf="http://www.w3.org/1999/02/22-rdf-syntax-ns#"
   xmlns:cc="http://creativecommons.org/ns#"
   xmlns:dc="http://purl.org/dc/elements/1.1/">
  <defs
     id="defs15" />
  <sodipodi:namedview
     id="namedview13"
     pagecolor="#505050"
     bordercolor="#eeeeee"
     borderopacity="1"
     inkscape:pageshadow="0"
     inkscape:pageopacity="0"
     inkscape:pagecheckerboard="0"
     showgrid="false"
     inkscape:zoom="6.0701196"
     inkscape:cx="74.051259"
     inkscape:cy="26.440995"
     inkscape:window-width="1920"
     inkscape:window-height="991"
     inkscape:window-x="-9"
     inkscape:window-y="-9"
     inkscape:window-maximized="1"
     inkscape:current-layer="svg11" />
  <!-- Generator: Sketch 55 (78076) - https://sketchapp.com -->
  <title
     id="title2">logo</title>
  <desc
     id="desc4">Created with Sketch.</desc>
  <g
     id="Web"
     stroke="none"
     stroke-width="1"
     fill="none"
     fill-rule="evenodd"
     style="stroke:#ffffff;stroke-width:2;stroke-linecap:round;stroke-linejoin:round;stroke-miterlimit:4;stroke-dasharray:none;stroke-opacity:1;paint-order:stroke markers fill"
     transform="translate(1.0012135,0.14410074)">
    <g
       id="Home"
       transform="translate(-250,-21)"
       style="stroke:#ffffff;stroke-width:2;stroke-linecap:round;stroke-linejoin:round;stroke-miterlimit:4;stroke-dasharray:none;stroke-opacity:1;paint-order:stroke markers fill">
      <g
         id="logo"
         transform="translate(250,20)"
         style="stroke:#ffffff;stroke-width:2;stroke-linecap:round;stroke-linejoin:round;stroke-miterlimit:4;stroke-dasharray:none;stroke-opacity:1;paint-order:stroke markers fill">
        <path
           d="m 18.285736,15.571415 c 0,-2.51786 -2.053574,-4.571434 -4.571434,-4.571434 -2.51786,0 -4.571434,2.053574 -4.571434,4.571434 0,2.51786 2.053574,4.571434 4.571434,4.571434 2.51786,0 4.571434,-2.053574 4.571434,-4.571434 z m 2.464289,0 c 0,3.892862 -3.142861,7.035723 -7.035723,7.035723 -3.8928617,0 -7.0357226,-3.142861 -7.0357226,-7.035723 0,-3.892862 3.1428609,-7.0357227 7.0357226,-7.0357227 3.892862,0 7.035723,3.1428607 7.035723,7.0357227 z m 1.928573,-7.3214373 c 0,0.9107153 -0.732143,1.6428591 -1.642859,1.6428591 -0.910715,0 -1.642859,-0.7321438 -1.642859,-1.6428591 0,-0.9107154 0.732144,-1.6428592 1.642859,-1.6428592 0.910716,0 1.642859,0.7321438 1.642859,1.6428592 z M 13.714302,4.3214015 c -2.000002,0 -6.2857217,-0.1607144 -8.0892953,0.5535721 C 5.000006,5.1249739 4.5357197,5.4285457 4.0535763,5.9106891 3.5714328,6.3928326 3.267861,6.8571188 3.0178607,7.4821196 2.3035742,9.2856932 2.4642886,13.571413 2.4642886,15.571415 c 0,2.000002 -0.1607144,6.285722 0.5535721,8.089295 0.2500003,0.625001 0.5535721,1.089287 1.0357156,1.571431 0.4821434,0.482143 0.9464297,0.785715 1.5714304,1.035715 1.8035736,0.714287 6.0892933,0.553572 8.0892953,0.553572 2.000002,0 6.285722,0.160715 8.089295,-0.553572 0.625001,-0.25 1.089287,-0.553572 1.571431,-1.035715 0.482143,-0.482144 0.785715,-0.94643 1.035715,-1.571431 0.714287,-1.803573 0.553573,-6.089293 0.553573,-8.089295 0,-2.000002 0.160714,-6.2857218 -0.553573,-8.0892954 -0.25,-0.6250008 -0.553572,-1.089287 -1.035715,-1.5714305 C 22.892884,5.4285457 22.428598,5.1249739 21.803597,4.8749736 20.000024,4.1606871 15.714304,4.3214015 13.714302,4.3214015 Z M 27.428604,15.571415 c 0,1.892859 0.01786,3.767862 -0.08929,5.660721 -0.107143,2.196431 -0.607143,4.142862 -2.214288,5.750007 -1.607145,1.607145 -3.553576,2.107145 -5.750007,2.214288 -1.892859,0.107143 -3.767861,0.08929 -5.660721,0.08929 -1.892859,0 -3.7678616,0.01786 -5.660721,-0.08929 C 5.8571498,29.089288 3.910719,28.589288 2.3035742,26.982143 0.6964294,25.374998 0.19642881,23.428567 0.08928582,21.232136 -0.01785716,19.339277 0,17.464274 0,15.571415 0,13.678556 -0.01785716,11.803553 0.08928582,9.9106939 0.19642881,7.7142627 0.6964294,5.7678318 2.3035742,4.1606871 3.910719,2.5535423 5.8571498,2.0535417 8.053581,1.9463987 c 1.8928594,-0.107143 3.767862,-0.089286 5.660721,-0.089286 1.89286,0 3.767862,-0.017857 5.660721,0.089286 2.196431,0.107143 4.142862,0.6071436 5.750007,2.2142884 1.607145,1.6071447 2.107145,3.5535756 2.214288,5.7500068 0.107143,1.8928591 0.08929,3.7678621 0.08929,5.6607211 z"
           id=""
           fill="#000000"
           fill-rule="nonzero"
           style="stroke:#ffffff;stroke-width:2;stroke-linecap:round;stroke-linejoin:round;stroke-miterlimit:4;stroke-dasharray:none;stroke-opacity:1;paint-order:stroke markers fill" />
        <path
           d="m 110.29234,13.093372 c -0.5593,0.02139 -1.87278,0.388172 -2.10937,4.054639 -0.23659,3.666011 0.73153,4.614824 1.55007,4.722675 0.81719,0.10785 2.25939,-1.20729 2.34506,-5.111302 0.0866,-3.903101 -1.78576,-3.666012 -1.78576,-3.666012 M 92.555335,24.367633 c -3.234757,2.806847 -3.514405,4.811868 -3.514405,4.811868 0,0 -0.319532,1.644153 1.238246,1.724245 1.871871,0.190673 2.185965,-2.091939 2.236274,-4.090133 0.02447,-0.943352 0.03988,-2.44598 0.03988,-2.44598 M 90.638593,12.979606 c -0.567907,0.02184 -1.996965,0.521506 -2.319217,4.070565 -0.240216,3.714249 0.742403,4.675804 1.572735,4.785019 0.830331,0.109216 2.294289,-1.223672 2.380857,-5.178196 0.08793,-3.954978 -1.634375,-3.677388 -1.634375,-3.677388 m -11.44833,-0.01638 c -0.559296,0.02139 -1.872778,0.388171 -2.108915,4.054638 -0.23659,3.666011 0.731525,4.614824 1.549619,4.722675 0.817641,0.10785 2.25939,-1.20729 2.345052,-5.110847 0.08702,-3.904011 -1.785756,-3.666466 -1.785756,-3.666466 M 133,19.198538 c 0,4.164309 -2.51275,4.097869 -2.51275,4.097869 -2.39083,0.0851 -3.00225,-2.451895 -3.15317,-5.030754 -0.11331,-1.939492 0,-4.09787 0,-4.09787 0,0 -0.0168,-0.09966 -0.0825,0 -0.79952,1.457577 -1.34295,3.669198 -1.60945,5.380701 -0.19353,1.241875 -0.21348,2.281701 -0.21348,2.281701 0,0 0.0331,0.233449 -0.16452,0.366783 -1.29717,0.599322 -2.13475,-0.250286 -2.43026,-1.199554 -0.39386,-0.89921 -0.62411,-6.313131 -0.62411,-6.596182 0,-0.283506 -0.23024,-0.06644 -0.23024,-0.06644 -1.78984,3.014812 -1.80616,7.44579 -1.80616,8.345 0,0.899666 -1.52741,0.616614 -1.52741,0.616614 -1.29762,-0.100114 -1.24821,-0.733111 -1.24821,-0.733111 l -0.0589,-1.075321 c -0.45052,0.835046 -1.28901,1.919469 -2.57757,1.835737 -1.95073,-0.126509 -2.32919,-2.154738 -2.35774,-2.496948 0,0 -0.97083,2.525617 -3.64312,2.496948 -1.81477,-0.02821 -2.54312,-1.912188 -2.54312,-1.912188 0,0 -0.72881,1.969071 -2.51411,1.89808 -1.78621,-0.07145 -3.25787,-2.14063 -3.14366,-4.822789 0.11422,-2.682614 0.52848,-4.024149 0.52848,-4.024149 0,0 0.14322,-0.271219 -0.0997,-0.285326 -0.24249,-0.01411 -1.785761,0.02867 -1.785761,0.02867 0,0 -0.871576,3.510379 -4.557305,7.876282 0,0 0.02946,1.364743 0.0281,2.882844 -0.0018,2.870101 -0.357151,6.720414 -4.228707,7.034865 -3.34988,-0.227533 -3.16088,-2.820499 -3.16088,-2.820499 -0.07977,-0.761781 0.399302,-2.165204 2.396268,-4.050088 1.996965,-1.884428 2.79557,-2.606163 2.79557,-2.606163 l -0.07932,-1.203194 c -1.278584,2.125158 -3.235211,2.005021 -3.235211,2.005021 0,0 -1.511094,0.308534 -2.781973,-1.949048 -0.373921,0.773157 -1.222835,2.092393 -2.611555,1.939036 -1.951642,-0.215701 -2.33916,-2.17112 -2.367714,-2.51606 0,0 -0.975367,2.544729 -3.658534,2.51606 -1.822469,-0.02912 -2.553995,-1.926294 -2.553995,-1.926294 -0.211208,-0.384531 -0.373921,-0.967926 -0.459129,-1.3115 -0.02176,0.07008 -0.04668,0.146531 -0.08113,0.235724 -0.413353,1.061669 -1.436763,2.912877 -3.006779,2.936541 -2.884404,0 -3.006325,-4.492412 -3.006325,-4.492412 -0.833958,1.992734 -2.467426,4.545199 -5.508651,4.527907 -3.041225,-0.0182 -3.406081,-1.119007 -3.406081,-1.27646 0,-0.157453 -0.05212,-0.332199 0.295511,-0.839142 0.347633,-0.506944 0.643144,-0.716729 0.886079,-0.716729 0.243389,0 0.678044,0.367238 0.678044,0.367238 0,0 0.660367,0.646194 1.407303,0.646194 0.955878,-0.03459 1.164367,-0.803647 1.234166,-1.590456 0.06934,-0.786354 -0.486777,-1.625496 -1.251389,-2.324932 -0.764612,-0.698981 -1.355634,-1.223217 -1.355634,-1.223217 -1.094569,1.853028 -1.92898,3.111286 -2.536771,4.195253 -1.477555,2.412305 -2.943326,2.785459 -3.510326,2.709463 -0.782288,-0.104665 -1.529677,-0.909222 -1.564123,-3.251446 -0.0349,-2.342225 0.17359,-6.345441 0.17359,-6.555226 0,-0.209786 -0.190814,-0.104665 -0.190814,-0.104665 -2.919757,3.111286 -3.788613,9.509059 -3.788613,9.631472 0,0.122867 -0.260612,0.262118 -0.521224,0.262118 -0.260611,0 0.08702,-0.01729 -0.955878,-0.05233 -1.042447,-0.03458 -0.973101,-2.027319 -0.973101,-2.027319 l 0.06934,-9.527717 c 0.01722,-0.314451 0.313187,-0.454156 1.303512,-0.192038 0.990777,0.262118 0.955878,0.594316 0.955878,0.594316 l -0.0349,5.524047 c 2.554447,-7.5691134 4.483427,-6.380481 5.647795,-5.803912 1.164367,0.577023 1.008,1.416165 1.008,1.416165 0,0 -0.121468,4.160669 -0.174043,5.629167 -0.05167,1.468498 0.156367,2.045066 0.486777,2.097854 0.816734,0.192038 3.718815,-5.437129 3.718815,-5.437129 -1.285835,-1.398418 -0.58377,-3.10537 0.416979,-3.845763 0.679856,-0.503303 1.512001,-0.559276 1.512001,-0.559276 0,0 1.303058,-0.07008 1.268612,1.03118 0.03445,1.20638 -1.303511,2.674878 -1.303511,2.674878 2.589346,1.853029 3.805836,2.831876 3.997103,4.264878 0.08566,0.687605 -0.0698,1.119008 -0.0698,1.119008 1.842411,-1.608204 1.981102,-3.408445 1.981102,-3.408445 l 0.0349,-6.013697 -2.728037,-0.03458 c 0,0 -0.20849,-0.01775 -0.243389,-0.524691 0,-0.9615545 0.504,-1.3638329 0.504,-1.3638329 l 2.60657,0.03504 c 0,0 0.08702,-2.709463 0.104245,-3.1467814 0.08657,-0.6289013 0.486324,-0.716729 1.633469,-0.4195709 1.146691,0.2971581 1.146691,0.5592761 1.146691,0.5592761 L 71.448973,8.967752 c 0,0 2.867635,0.1397052 3.250167,0.1747453 0.38208,0.03504 0.503547,0.1397053 0.416979,0.7863541 C 75.029087,10.575947 74.647008,10.7334 74.647008,10.7334 l -3.232491,0.06963 -0.225712,6.975252 c 0,1.083512 0.05167,3.635977 1.059669,3.61823 1.407757,0.06963 2.242167,-3.093994 2.242167,-3.093994 l 0.01541,-0.02503 c -0.01586,-0.493291 -0.0059,-1.084877 0.06436,-1.748818 0.266504,-2.541999 1.395519,-5.520861 3.988038,-5.520861 0,0 1.578627,-0.05734 2.410772,1.524016 l 0.02855,-0.575203 c 0,0 -0.05756,-0.68988 1.033382,-0.51741 1.09049,0.17247 1.463052,0.603872 1.434498,0.948812 0,0 -0.200785,4.428247 -0.08566,7.045332 0.145942,1.519921 0.406101,2.418676 1.176152,2.357242 0.663993,-0.09693 1.13536,-1.008426 1.4209,-1.784769 -0.964037,-8.051938 3.424664,-9.028054 3.424664,-9.028054 0,0 1.942576,-0.142891 2.828203,1.48397 l 0.02855,-0.542439 c 0,0 -0.08566,-0.713088 0.943641,-0.513314 0,0 0.428309,0.05688 0.885626,0.227988 0.456863,0.171105 0.599633,0.285326 0.599633,0.713543 0,0.427762 -0.08566,7.951369 -0.08566,7.951369 0,0 2.286131,-3.082162 2.857664,-6.078772 0,0 -0.799964,-0.599322 -0.742403,-1.455301 0.05665,-0.856434 0.484964,-1.883518 1.742699,-1.883518 1.257281,0 1.314389,1.112636 1.114511,1.883518 0,0 1.056949,-0.142891 1.971139,-0.371334 0.91463,-0.227988 2.14336,-0.370879 2.22902,1.056208 0.0571,0.51377 -0.17178,0.913318 -0.17178,0.913318 0,0 -0.7143,3.167714 -0.60009,4.45191 0.11467,1.284197 0.45777,3.224598 1.45762,2.996155 0.99984,-0.227988 1.34294,-1.65462 1.34294,-1.65462 0,0 -0.40202,-1.651435 -0.20033,-3.567718 0.26605,-2.522885 1.39008,-5.478994 3.97172,-5.478994 0,0 1.57183,-0.05734 2.4008,1.512184 l 0.0281,-0.570653 c 0,0 -0.0571,-0.684874 1.0293,-0.513769 1.08506,0.17156 1.45716,0.599322 1.42816,0.941531 0,0 -0.19988,4.395028 -0.0852,6.992545 0.14503,1.508543 0.40383,2.400473 1.17116,2.339494 0.73969,-0.02184 1.36334,-1.276915 1.74905,-2.300359 l -0.005,-0.378614 0.0249,-7.421217 c 0.0616,-0.424577 0.44372,-0.449605 0.44372,-0.449605 l 0.88653,0.13743 c 1.24414,0.187487 1.07146,0.662121 1.07146,0.662121 v 4.197529 c 0.9237,-2.848259 1.36741,-3.935411 1.78621,-4.659876 0.35669,-0.617525 1.52695,-0.212516 1.52695,-0.212516 0,0 1.26907,0.337659 1.29354,1.511729 -0.0367,1.936761 0.23433,5.091279 0.23433,5.091279 0.005,0.05006 0.0476,0.06553 0.0716,0.04369 0.019,-0.01729 0.0208,-0.06871 0.0208,-0.06871 0.252,-2.03005 1.40186,-5.362043 1.8619,-6.228033 0.45958,-0.865991 1.78983,-0.249832 1.78983,-0.249832 1.59313,0.54972 1.37966,1.498988 1.37966,1.498988 -0.47635,8.145681 0.5253,8.678564 1.11678,8.728621 0.59102,0.05006 0.9033,-0.716274 1.03474,-1.083057 0.13144,-0.365873 0.29551,-1.165424 0.39386,-1.48215 0.0984,-0.316271 0.41109,-0.333109 0.41109,-0.333109 0,0 0.36123,0.08328 0.36123,0.383166 M 40.50552,6.8257484 c 1.796181,-1.7692967 2.908879,-1.8220843 2.908879,-1.8220843 0,0 0.350353,-0.053243 1.200174,0.2461907 0.84982,0.2994334 0.88472,0.7572298 0.88472,0.7572298 V 18.955988 c 0.10923,3.624601 -0.788181,5.018013 -1.86598,5.986393 -0.612324,0.499663 -1.10454,0.563372 -1.165274,0.563372 -0.148662,0 -0.262425,-0.01775 -0.289166,-0.219797 -0.02583,-0.202504 0.157727,-0.730836 0.157727,-0.730836 0.543432,-1.382491 0.499468,-3.776593 0.499468,-3.776593 l 0.05258,-13.9527786 c 0,0 0.04396,-0.2552921 -0.17495,-0.1761106 -2.120246,1.8311856 -2.383124,4.4105002 -2.453376,5.6605662 -0.0349,1.874872 0.77549,2.843252 0.77549,2.843252 0,0 0.210302,0.184757 0.184014,0.448695 0,0.356772 -0.328597,0.330378 -0.328597,0.330378 -0.797245,-0.07463 -2.06767,-0.981577 -2.523174,-2.07328 -0.377547,-0.806377 -0.368029,-1.676919 -0.368029,-1.676919 0.02629,-1.096254 0.70977,-3.587285 2.505498,-5.3565816"
           id="Instagram-Logo"
           fill="#1d1d1b"
           style="stroke:#ffffff;stroke-width:2;stroke-linecap:round;stroke-linejoin:round;stroke-miterlimit:4;stroke-dasharray:none;stroke-opacity:1;paint-order:stroke markers fill" />
      </g>
    </g>
  </g>
  <metadata
     id="metadata832">
    <rdf:RDF>
      <cc:Work
         rdf:about="">
        <dc:title>logo</dc:title>
      </cc:Work>
    </rdf:RDF>
  </metadata>
</svg>
